<svg viewBox="0 0 41 36" xmlns="http://www.w3.org/2000/svg" fill-rule="evenodd" clip-rule="evenodd" stroke-linejoin="round" stroke-miterlimit="2">
  <style>
    .i {
      fill: #44444F;
    }
    .B {
      fill: #0073FF;
    }

    @media (prefers-color-scheme: dark) {
      .i {
        fill: #FAFAFB;
      }
      .B {
        fill: #FFC542;
      }
    }
  </style>
  <g fill-rule="nonzero" fill="none">
    <path class="i" d="M4.768 9.512c1.344 0 2.424-.416 3.24-1.248.816-.832 1.224-1.856 1.224-3.072s-.408-2.24-1.224-3.072C7.192 1.288 6.112.872 4.768.872c-1.344 0-2.424.416-3.24 1.248C.712 2.952.304 3.976.304 5.192s.408 2.24 1.224 3.072c.816.832 1.896 1.248 3.24 1.248zM5.2 35.384c.704 0 1.4-.056 2.088-.168.688-.112 1.208-.2 1.56-.264V15.416c0-.8-.104-1.448-.312-1.944-.208-.496-.504-.888-.888-1.176-.384-.288-.856-.48-1.416-.576a11.29 11.29 0 00-1.896-.144c-.704 0-1.4.056-2.088.168-.688.112-1.208.2-1.56.264v19.536c0 .8.104 1.448.312 1.944.208.496.504.888.888 1.176.384.288.856.48 1.416.576.56.096 1.192.144 1.896.144z" />
    <path class="B" d="M25.936 35.768c4.416 0 7.8-.76 10.152-2.28 2.352-1.52 3.528-3.864 3.528-7.032 0-1.792-.536-3.28-1.608-4.464-1.072-1.184-2.408-2-4.008-2.448 1.408-.48 2.528-1.24 3.36-2.28.832-1.04 1.248-2.28 1.248-3.72 0-2.88-1.104-5.008-3.312-6.384-2.208-1.376-5.36-2.064-9.456-2.064-1.728 0-3.408.088-5.04.264-1.632.176-2.992.456-4.08.84-.64.224-1.144.52-1.512.888-.368.368-.552.888-.552 1.56v22.416c0 1.664.88 2.832 2.64 3.504.64.256 1.344.456 2.112.6.768.144 1.544.264 2.328.36.784.096 1.544.16 2.28.192.736.032 1.376.048 1.92.048zm.384-18.48h-3.504v-5.664c.352-.064.84-.112 1.464-.144a32.756 32.756 0 011.656-.048c1.44 0 2.52.256 3.24.768.72.512 1.08 1.2 1.08 2.064 0 .992-.312 1.744-.936 2.256-.624.512-1.624.768-3 .768zm.24 12.048c-.64 0-1.312-.024-2.016-.072-.704-.048-1.28-.136-1.728-.264v-5.856h3.936c1.44 0 2.512.224 3.216.672.704.448 1.056 1.2 1.056 2.256 0 1.12-.424 1.944-1.272 2.472-.848.528-1.912.792-3.192.792z" />
  </g>
</svg>

