<?xml version="1.0" encoding="UTF-8"?>
<svg width="100%" viewBox="0 0 267 36" version="1.1" xmlns="http://www.w3.org/2000/svg" xmlns:xlink="http://www.w3.org/1999/xlink">
    <!-- Generator: Sketch 61.2 (89653) - https://sketch.com -->
    <title>instantbible-logo-light</title>
    <desc>Created with Sketch.</desc>
    <g id="Page-1" stroke="none" stroke-width="1" fill="none" fill-rule="evenodd">
        <g id="instantBible" transform="translate(0.304000, 0.872000)" fill-rule="nonzero">
            <path d="M4.464,8.64 C5.808,8.64 6.888,8.224 7.704,7.392 C8.52,6.56 8.928,5.536 8.928,4.32 C8.928,3.104 8.52,2.08 7.704,1.248 C6.888,0.416 5.808,2.84217094e-14 4.464,2.84217094e-14 C3.12,2.84217094e-14 2.04,0.416 1.224,1.248 C0.408,2.08 0,3.104 0,4.32 C0,5.536 0.408,6.56 1.224,7.392 C2.04,8.224 3.12,8.64 4.464,8.64 Z M4.896,34.512 C5.6,34.512 6.296,34.456 6.984,34.344 C7.672,34.232 8.192,34.144 8.544,34.08 L8.544,34.08 L8.544,14.544 C8.544,13.744 8.44,13.096 8.232,12.6 C8.024,12.104 7.728,11.712 7.344,11.424 C6.96,11.136 6.488,10.944 5.928,10.848 C5.368,10.752 4.736,10.704 4.032,10.704 C3.328,10.704 2.632,10.76 1.944,10.872 C1.256,10.984 0.736,11.072 0.384,11.136 L0.384,11.136 L0.384,30.672 C0.384,31.472 0.488,32.12 0.696,32.616 C0.904,33.112 1.2,33.504 1.584,33.792 C1.968,34.08 2.44,34.272 3,34.368 C3.56,34.464 4.192,34.512 4.896,34.512 Z M33.024,34.512 C33.76,34.512 34.472,34.464 35.16,34.368 C35.848,34.272 36.352,34.176 36.672,34.08 L36.672,34.08 L36.672,19.056 C36.672,16.24 35.696,14.04 33.744,12.456 C31.792,10.872 29.008,10.08 25.392,10.08 C23.376,10.08 21.544,10.32 19.896,10.8 C18.248,11.28 16.88,11.904 15.792,12.672 C15.152,13.12 14.648,13.616 14.28,14.16 C13.912,14.704 13.728,15.408 13.728,16.272 L13.728,16.272 L13.728,30.672 C13.728,31.472 13.832,32.12 14.04,32.616 C14.248,33.112 14.544,33.504 14.928,33.792 C15.312,34.08 15.784,34.272 16.344,34.368 C16.904,34.464 17.536,34.512 18.24,34.512 C18.976,34.512 19.688,34.464 20.376,34.368 C21.064,34.272 21.568,34.176 21.888,34.08 L21.888,34.08 L21.888,17.424 C22.336,17.104 22.872,16.864 23.496,16.704 C24.12,16.544 24.752,16.464 25.392,16.464 C26.352,16.464 27.112,16.696 27.672,17.16 C28.232,17.624 28.512,18.352 28.512,19.344 L28.512,19.344 L28.512,30.672 C28.512,31.472 28.616,32.12 28.824,32.616 C29.032,33.112 29.328,33.504 29.712,33.792 C30.096,34.08 30.568,34.272 31.128,34.368 C31.688,34.464 32.32,34.512 33.024,34.512 Z M50.592,34.944 C54.144,34.944 56.832,34.256 58.656,32.88 C60.48,31.504 61.392,29.6 61.392,27.168 C61.392,25.216 60.744,23.624 59.448,22.392 C58.152,21.16 55.968,20.192 52.896,19.488 L52.896,19.488 L51.408,19.152 C50.512,18.96 49.904,18.752 49.584,18.528 C49.264,18.304 49.104,18.016 49.104,17.664 C49.104,17.152 49.392,16.776 49.968,16.536 C50.544,16.296 51.36,16.176 52.416,16.176 C52.928,16.176 53.496,16.224 54.12,16.32 C54.744,16.416 55.36,16.536 55.968,16.68 C56.576,16.824 57.136,16.984 57.648,17.16 C58.16,17.336 58.544,17.504 58.8,17.664 C59.216,17.312 59.56,16.872 59.832,16.344 C60.104,15.816 60.24,15.184 60.24,14.448 C60.24,13.68 60.016,13.016 59.568,12.456 C59.12,11.896 58.512,11.44 57.744,11.088 C56.976,10.736 56.072,10.472 55.032,10.296 C53.992,10.12 52.88,10.032 51.696,10.032 C50.128,10.032 48.696,10.208 47.4,10.56 C46.104,10.912 44.992,11.408 44.064,12.048 C43.136,12.688 42.416,13.488 41.904,14.448 C41.392,15.408 41.136,16.48 41.136,17.664 C41.136,19.84 41.816,21.512 43.176,22.68 C44.536,23.848 46.608,24.704 49.392,25.248 L49.392,25.248 L50.832,25.536 C51.728,25.696 52.368,25.904 52.752,26.16 C53.136,26.416 53.328,26.768 53.328,27.216 C53.328,27.696 53.064,28.08 52.536,28.368 C52.008,28.656 51.248,28.8 50.256,28.8 C48.688,28.8 47.304,28.6 46.104,28.2 C44.904,27.8 43.84,27.344 42.912,26.832 C42.464,27.184 42.08,27.624 41.76,28.152 C41.44,28.68 41.28,29.328 41.28,30.096 C41.28,30.928 41.512,31.648 41.976,32.256 C42.44,32.864 43.08,33.368 43.896,33.768 C44.712,34.168 45.696,34.464 46.848,34.656 C48,34.848 49.248,34.944 50.592,34.944 Z M74.208,34.848 C76.512,34.848 78.12,34.464 79.032,33.696 C79.944,32.928 80.4,31.936 80.4,30.72 C80.4,30.112 80.296,29.592 80.088,29.16 C79.88,28.728 79.632,28.336 79.344,27.984 C78.96,28.112 78.512,28.216 78,28.296 C77.488,28.376 76.992,28.416 76.512,28.416 C75.552,28.416 74.808,28.24 74.28,27.888 C73.752,27.536 73.488,26.944 73.488,26.112 L73.488,26.112 L73.488,18.864 L77.856,18.864 C78.688,18.864 79.352,18.616 79.848,18.12 C80.344,17.624 80.592,16.816 80.592,15.696 C80.592,15.056 80.504,14.472 80.328,13.944 C80.152,13.416 79.968,12.976 79.776,12.624 L79.776,12.624 L73.488,12.624 L73.488,9.552 C73.488,7.952 73.096,6.904 72.312,6.408 C71.528,5.912 70.432,5.664 69.024,5.664 C68.288,5.664 67.592,5.72 66.936,5.832 C66.28,5.944 65.776,6.048 65.424,6.144 L65.424,6.144 L65.424,26.688 C65.424,29.568 66.184,31.648 67.704,32.928 C69.224,34.208 71.392,34.848 74.208,34.848 Z M94.512,34.896 C98.288,34.896 101.216,34.272 103.296,33.024 C103.936,32.64 104.488,32.184 104.952,31.656 C105.416,31.128 105.648,30.448 105.648,29.616 L105.648,29.616 L105.648,18.864 C105.648,17.36 105.376,16.056 104.832,14.952 C104.288,13.848 103.512,12.936 102.504,12.216 C101.496,11.496 100.28,10.96 98.856,10.608 C97.432,10.256 95.856,10.08 94.128,10.08 C93.008,10.08 91.816,10.16 90.552,10.32 C89.288,10.48 88.192,10.736 87.264,11.088 C86.432,11.44 85.816,11.864 85.416,12.36 C85.016,12.856 84.816,13.52 84.816,14.352 C84.816,14.992 84.96,15.608 85.248,16.2 C85.536,16.792 85.888,17.232 86.304,17.52 C87.232,17.136 88.272,16.816 89.424,16.56 C90.576,16.304 91.76,16.176 92.976,16.176 C94.512,16.176 95.688,16.376 96.504,16.776 C97.32,17.176 97.728,17.84 97.728,18.768 L97.728,18.768 L97.728,19.104 L91.44,19.776 C88.688,20.064 86.656,20.8 85.344,21.984 C84.032,23.168 83.376,24.864 83.376,27.072 C83.376,28.384 83.64,29.536 84.168,30.528 C84.696,31.52 85.448,32.336 86.424,32.976 C87.4,33.616 88.568,34.096 89.928,34.416 C91.288,34.736 92.816,34.896 94.512,34.896 Z M94.512,28.944 C93.328,28.944 92.488,28.744 91.992,28.344 C91.496,27.944 91.248,27.424 91.248,26.784 C91.248,26.144 91.536,25.664 92.112,25.344 C92.688,25.024 93.424,24.832 94.32,24.768 L94.32,24.768 L97.776,24.48 L97.776,28.32 C97.456,28.512 96.968,28.664 96.312,28.776 C95.656,28.888 95.056,28.944 94.512,28.944 Z M129.936,34.512 C130.672,34.512 131.384,34.464 132.072,34.368 C132.76,34.272 133.264,34.176 133.584,34.08 L133.584,34.08 L133.584,19.056 C133.584,16.24 132.608,14.04 130.656,12.456 C128.704,10.872 125.92,10.08 122.304,10.08 C120.288,10.08 118.456,10.32 116.808,10.8 C115.16,11.28 113.792,11.904 112.704,12.672 C112.064,13.12 111.56,13.616 111.192,14.16 C110.824,14.704 110.64,15.408 110.64,16.272 L110.64,16.272 L110.64,30.672 C110.64,31.472 110.744,32.12 110.952,32.616 C111.16,33.112 111.456,33.504 111.84,33.792 C112.224,34.08 112.696,34.272 113.256,34.368 C113.816,34.464 114.448,34.512 115.152,34.512 C115.888,34.512 116.6,34.464 117.288,34.368 C117.976,34.272 118.48,34.176 118.8,34.08 L118.8,34.08 L118.8,17.424 C119.248,17.104 119.784,16.864 120.408,16.704 C121.032,16.544 121.664,16.464 122.304,16.464 C123.264,16.464 124.024,16.696 124.584,17.16 C125.144,17.624 125.424,18.352 125.424,19.344 L125.424,19.344 L125.424,30.672 C125.424,31.472 125.528,32.12 125.736,32.616 C125.944,33.112 126.24,33.504 126.624,33.792 C127.008,34.08 127.48,34.272 128.04,34.368 C128.6,34.464 129.232,34.512 129.936,34.512 Z M147.504,34.848 C149.808,34.848 151.416,34.464 152.328,33.696 C153.24,32.928 153.696,31.936 153.696,30.72 C153.696,30.112 153.592,29.592 153.384,29.16 C153.176,28.728 152.928,28.336 152.64,27.984 C152.256,28.112 151.808,28.216 151.296,28.296 C150.784,28.376 150.288,28.416 149.808,28.416 C148.848,28.416 148.104,28.24 147.576,27.888 C147.048,27.536 146.784,26.944 146.784,26.112 L146.784,26.112 L146.784,18.864 L151.152,18.864 C151.984,18.864 152.648,18.616 153.144,18.12 C153.64,17.624 153.888,16.816 153.888,15.696 C153.888,15.056 153.8,14.472 153.624,13.944 C153.448,13.416 153.264,12.976 153.072,12.624 L153.072,12.624 L146.784,12.624 L146.784,9.552 C146.784,7.952 146.392,6.904 145.608,6.408 C144.824,5.912 143.728,5.664 142.32,5.664 C141.584,5.664 140.888,5.72 140.232,5.832 C139.576,5.944 139.072,6.048 138.72,6.144 L138.72,6.144 L138.72,26.688 C138.72,29.568 139.48,31.648 141,32.928 C142.52,34.208 144.688,34.848 147.504,34.848 Z" id="instant" fill="#44444F"></path>
            <path d="M169.728,34.896 C174.144,34.896 177.528,34.136 179.88,32.616 C182.232,31.096 183.408,28.752 183.408,25.584 C183.408,23.792 182.872,22.304 181.8,21.12 C180.728,19.936 179.392,19.12 177.792,18.672 C179.2,18.192 180.32,17.432 181.152,16.392 C181.984,15.352 182.4,14.112 182.4,12.672 C182.4,9.792 181.296,7.664 179.088,6.288 C176.88,4.912 173.728,4.224 169.632,4.224 C167.904,4.224 166.224,4.312 164.592,4.488 C162.96,4.664 161.6,4.944 160.512,5.328 C159.872,5.552 159.368,5.848 159,6.216 C158.632,6.584 158.448,7.104 158.448,7.776 L158.448,7.776 L158.448,30.192 C158.448,31.856 159.328,33.024 161.088,33.696 C161.728,33.952 162.432,34.152 163.2,34.296 C163.968,34.44 164.744,34.56 165.528,34.656 C166.312,34.752 167.072,34.816 167.808,34.848 C168.544,34.88 169.184,34.896 169.728,34.896 Z M170.112,16.416 L166.608,16.416 L166.608,10.752 C166.96,10.688 167.448,10.64 168.072,10.608 C168.696,10.576 169.248,10.56 169.728,10.56 C171.168,10.56 172.248,10.816 172.968,11.328 C173.688,11.84 174.048,12.528 174.048,13.392 C174.048,14.384 173.736,15.136 173.112,15.648 C172.488,16.16 171.488,16.416 170.112,16.416 L170.112,16.416 Z M170.352,28.464 C169.712,28.464 169.04,28.44 168.336,28.392 C167.632,28.344 167.056,28.256 166.608,28.128 L166.608,28.128 L166.608,22.272 L170.544,22.272 C171.984,22.272 173.056,22.496 173.76,22.944 C174.464,23.392 174.816,24.144 174.816,25.2 C174.816,26.32 174.392,27.144 173.544,27.672 C172.696,28.2 171.632,28.464 170.352,28.464 Z M191.808,8.64 C193.152,8.64 194.232,8.224 195.048,7.392 C195.864,6.56 196.272,5.536 196.272,4.32 C196.272,3.104 195.864,2.08 195.048,1.248 C194.232,0.416 193.152,2.84217094e-14 191.808,2.84217094e-14 C190.464,2.84217094e-14 189.384,0.416 188.568,1.248 C187.752,2.08 187.344,3.104 187.344,4.32 C187.344,5.536 187.752,6.56 188.568,7.392 C189.384,8.224 190.464,8.64 191.808,8.64 Z M192.24,34.512 C192.944,34.512 193.64,34.456 194.328,34.344 C195.016,34.232 195.536,34.144 195.888,34.08 L195.888,34.08 L195.888,14.544 C195.888,13.744 195.784,13.096 195.576,12.6 C195.368,12.104 195.072,11.712 194.688,11.424 C194.304,11.136 193.832,10.944 193.272,10.848 C192.712,10.752 192.08,10.704 191.376,10.704 C190.672,10.704 189.976,10.76 189.288,10.872 C188.6,10.984 188.08,11.072 187.728,11.136 L187.728,11.136 L187.728,30.672 C187.728,31.472 187.832,32.12 188.04,32.616 C188.248,33.112 188.544,33.504 188.928,33.792 C189.312,34.08 189.784,34.272 190.344,34.368 C190.904,34.464 191.536,34.512 192.24,34.512 Z M212.4,34.896 C214.352,34.896 216.136,34.632 217.752,34.104 C219.368,33.576 220.736,32.8 221.856,31.776 C222.976,30.752 223.848,29.464 224.472,27.912 C225.096,26.36 225.408,24.544 225.408,22.464 C225.408,20.448 225.104,18.672 224.496,17.136 C223.888,15.6 223.056,14.312 222,13.272 C220.944,12.232 219.728,11.44 218.352,10.896 C216.976,10.352 215.52,10.08 213.984,10.08 C213.12,10.08 212.328,10.144 211.608,10.272 C210.888,10.4 210.128,10.624 209.328,10.944 L209.328,10.944 L209.328,6.24 C209.328,5.44 209.232,4.792 209.04,4.296 C208.848,3.8 208.56,3.408 208.176,3.12 C207.792,2.832 207.32,2.64 206.76,2.544 C206.2,2.448 205.568,2.4 204.864,2.4 C204.128,2.4 203.408,2.456 202.704,2.568 C202,2.68 201.488,2.784 201.168,2.88 L201.168,2.88 L201.168,28.464 C201.168,30.032 201.872,31.312 203.28,32.304 C204.304,33.04 205.552,33.656 207.024,34.152 C208.496,34.648 210.288,34.896 212.4,34.896 Z M212.4,28.464 C211.664,28.464 211.048,28.392 210.552,28.248 C210.056,28.104 209.632,27.92 209.28,27.696 L209.28,27.696 L209.28,17.232 C209.824,16.976 210.328,16.784 210.792,16.656 C211.256,16.528 211.808,16.464 212.448,16.464 C213.856,16.464 214.976,16.96 215.808,17.952 C216.64,18.944 217.056,20.448 217.056,22.464 C217.056,24.448 216.648,25.944 215.832,26.952 C215.016,27.96 213.872,28.464 212.4,28.464 Z M234.048,34.512 C234.752,34.512 235.448,34.456 236.136,34.344 C236.824,34.232 237.344,34.144 237.696,34.08 L237.696,34.08 L237.696,6.24 C237.696,5.44 237.592,4.792 237.384,4.296 C237.176,3.8 236.88,3.408 236.496,3.12 C236.112,2.832 235.64,2.64 235.08,2.544 C234.52,2.448 233.888,2.4 233.184,2.4 C232.48,2.4 231.784,2.456 231.096,2.568 C230.408,2.68 229.888,2.768 229.536,2.832 L229.536,2.832 L229.536,30.672 C229.536,31.472 229.64,32.12 229.848,32.616 C230.056,33.112 230.352,33.504 230.736,33.792 C231.12,34.08 231.592,34.272 232.152,34.368 C232.712,34.464 233.344,34.512 234.048,34.512 Z M255.168,34.896 C256.288,34.896 257.488,34.8 258.768,34.608 C260.048,34.416 261.2,34.048 262.224,33.504 C263.568,32.8 264.24,31.728 264.24,30.288 C264.24,29.648 264.064,29.04 263.712,28.464 C263.36,27.888 262.928,27.44 262.416,27.12 C261.68,27.568 260.728,27.96 259.56,28.296 C258.392,28.632 257.152,28.8 255.84,28.8 C254.432,28.8 253.184,28.536 252.096,28.008 C251.008,27.48 250.288,26.688 249.936,25.632 L249.936,25.632 L261.792,23.856 C262.88,23.696 263.728,23.328 264.336,22.752 C264.944,22.176 265.248,21.344 265.248,20.256 C265.248,18.784 264.968,17.424 264.408,16.176 C263.848,14.928 263.064,13.856 262.056,12.96 C261.048,12.064 259.848,11.36 258.456,10.848 C257.064,10.336 255.52,10.08 253.824,10.08 C252.32,10.08 250.848,10.312 249.408,10.776 C247.968,11.24 246.688,11.96 245.568,12.936 C244.448,13.912 243.544,15.16 242.856,16.68 C242.168,18.2 241.824,20.016 241.824,22.128 C241.824,24.272 242.168,26.144 242.856,27.744 C243.544,29.344 244.488,30.672 245.688,31.728 C246.888,32.784 248.296,33.576 249.912,34.104 C251.528,34.632 253.28,34.896 255.168,34.896 Z M249.36,20.256 C249.392,19.744 249.496,19.24 249.672,18.744 C249.848,18.248 250.112,17.8 250.464,17.4 C250.816,17 251.272,16.672 251.832,16.416 C252.392,16.16 253.056,16.032 253.824,16.032 C255.008,16.032 255.904,16.352 256.512,16.992 C257.12,17.632 257.472,18.272 257.568,18.912 L257.568,18.912 L249.36,20.256 Z" id="Bible" fill="#0073FF"></path>
        </g>
    </g>
</svg>