<?xml version="1.0" encoding="UTF-8"?>
<svg width="100%" viewBox="0 0 41 36" version="1.1" xmlns="http://www.w3.org/2000/svg" xmlns:xlink="http://www.w3.org/1999/xlink">
    <!-- Generator: Sketch 61.2 (89653) - https://sketch.com -->
    <title>instantbible-icon-dark</title>
    <desc>Created with Sketch.</desc>
    <g id="Page-1" stroke="none" stroke-width="1" fill="none" fill-rule="evenodd">
        <g id="iB" transform="translate(0.304000, 0.872000)" fill-rule="nonzero">
            <path d="M4.464,8.64 C5.808,8.64 6.888,8.224 7.704,7.392 C8.52,6.56 8.928,5.536 8.928,4.32 C8.928,3.104 8.52,2.08 7.704,1.248 C6.888,0.416 5.808,2.84217094e-14 4.464,2.84217094e-14 C3.12,2.84217094e-14 2.04,0.416 1.224,1.248 C0.408,2.08 2.84217094e-14,3.104 2.84217094e-14,4.32 C2.84217094e-14,5.536 0.408,6.56 1.224,7.392 C2.04,8.224 3.12,8.64 4.464,8.64 Z M4.896,34.512 C5.6,34.512 6.296,34.456 6.984,34.344 C7.672,34.232 8.192,34.144 8.544,34.08 L8.544,34.08 L8.544,14.544 C8.544,13.744 8.44,13.096 8.232,12.6 C8.024,12.104 7.728,11.712 7.344,11.424 C6.96,11.136 6.488,10.944 5.928,10.848 C5.368,10.752 4.736,10.704 4.032,10.704 C3.328,10.704 2.632,10.76 1.944,10.872 C1.256,10.984 0.736,11.072 0.384,11.136 L0.384,11.136 L0.384,30.672 C0.384,31.472 0.488,32.12 0.696,32.616 C0.904,33.112 1.2,33.504 1.584,33.792 C1.968,34.08 2.44,34.272 3,34.368 C3.56,34.464 4.192,34.512 4.896,34.512 Z" id="i" fill="#FAFAFB"></path>
            <path d="M25.632,34.896 C30.048,34.896 33.432,34.136 35.784,32.616 C38.136,31.096 39.312,28.752 39.312,25.584 C39.312,23.792 38.776,22.304 37.704,21.12 C36.632,19.936 35.296,19.12 33.696,18.672 C35.104,18.192 36.224,17.432 37.056,16.392 C37.888,15.352 38.304,14.112 38.304,12.672 C38.304,9.792 37.2,7.664 34.992,6.288 C32.784,4.912 29.632,4.224 25.536,4.224 C23.808,4.224 22.128,4.312 20.496,4.488 C18.864,4.664 17.504,4.944 16.416,5.328 C15.776,5.552 15.272,5.848 14.904,6.216 C14.536,6.584 14.352,7.104 14.352,7.776 L14.352,7.776 L14.352,30.192 C14.352,31.856 15.232,33.024 16.992,33.696 C17.632,33.952 18.336,34.152 19.104,34.296 C19.872,34.44 20.648,34.56 21.432,34.656 C22.216,34.752 22.976,34.816 23.712,34.848 C24.448,34.88 25.088,34.896 25.632,34.896 Z M26.016,16.416 L22.512,16.416 L22.512,10.752 C22.864,10.688 23.352,10.64 23.976,10.608 C24.6,10.576 25.152,10.56 25.632,10.56 C27.072,10.56 28.152,10.816 28.872,11.328 C29.592,11.84 29.952,12.528 29.952,13.392 C29.952,14.384 29.64,15.136 29.016,15.648 C28.392,16.16 27.392,16.416 26.016,16.416 L26.016,16.416 Z M26.256,28.464 C25.616,28.464 24.944,28.44 24.24,28.392 C23.536,28.344 22.96,28.256 22.512,28.128 L22.512,28.128 L22.512,22.272 L26.448,22.272 C27.888,22.272 28.96,22.496 29.664,22.944 C30.368,23.392 30.72,24.144 30.72,25.2 C30.72,26.32 30.296,27.144 29.448,27.672 C28.6,28.2 27.536,28.464 26.256,28.464 Z" id="B" fill="#FFC542"></path>
        </g>
    </g>
</svg>